<?xml version="1.0" encoding="UTF-8"?>
<svg width="160px" height="34px" viewBox="0 0 160 34" version="1.1" xmlns="http://www.w3.org/2000/svg" xmlns:xlink="http://www.w3.org/1999/xlink">
    <title>eikonica</title>
    <g id="Page-1" stroke="none" stroke-width="1" fill="none" fill-rule="evenodd">
        <g id="Wireframe-1440-12col" transform="translate(-165.000000, -40.000000)" fill="#0090F6" fill-rule="nonzero">
            <g id="eikonica" transform="translate(165.000000, 40.000000)">
                <path d="M21,16.6211813 L21,22.101833 C21,23.1323829 20.1447964,23.9287169 19.1470588,23.9287169 L5.89140271,23.9287169 C4.84615385,23.9287169 4.03846154,24.7718941 4.03846154,25.7556008 L4.03846154,27.0672098 C4.03846154,27.5356415 4.22850679,28.0040733 4.56108597,28.3788187 L6.17647059,29.9714868 C6.50904977,30.299389 6.9841629,30.4867617 7.50678733,30.4867617 L14.2533937,30.4867617 C14.7285068,30.4867617 15.2036199,30.299389 15.5837104,29.9714868 L17.0090498,28.5661914 C17.7217195,27.8635438 18.9095023,27.8635438 19.6221719,28.5661914 L19.6221719,28.5661914 C20.3348416,29.2688391 20.3348416,30.4399185 19.6221719,31.1425662 L17.2466063,33.4847251 C16.9140271,33.8126273 16.438914,34 15.9162896,34 L5.70135747,34 C5.22624434,34 4.75113122,33.8126273 4.37104072,33.4847251 L0.522624434,29.6904277 C0.190045249,29.3625255 0,28.8940937 0,28.4256619 L0,16.6211813 C0,16.1527495 0.190045249,15.6843177 0.522624434,15.3095723 L4.37104072,11.5152749 C4.70361991,11.1873727 5.17873303,11 5.70135747,11 L15.2511312,11 C15.7262443,11 16.2013575,11.1873727 16.581448,11.5152749 L20.4298643,15.3095723 C20.7624434,15.6843177 21,16.1527495 21,16.6211813 Z M16.9615385,18.6354379 L16.9615385,17.9327902 C16.9615385,17.4643585 16.7714932,16.9959267 16.438914,16.6211813 L14.7760181,15.0285132 C14.4434389,14.700611 13.9683258,14.5132383 13.4457014,14.5132383 L7.50678733,14.5132383 C7.03167421,14.5132383 6.55656109,14.700611 6.17647059,15.0285132 L4.56108597,16.6211813 C4.22850679,16.9490835 4.03846154,17.4175153 4.03846154,17.9327902 L4.03846154,18.6354379 C4.03846154,19.6659878 4.89366516,20.4623218 5.89140271,20.4623218 L15.1085973,20.4623218 C16.1063348,20.509165 16.9615385,19.6659878 16.9615385,18.6354379 Z" id="Shape"></path>
                <path d="M27.0008981,0 L27.0008981,0 C28.0956444,0 29,0.90097629 29,1.9916318 L29,3.17712692 C29,4.26778243 28.0956444,5.16875872 27.0008981,5.16875872 L27.0008981,5.16875872 C25.9061518,5.16875872 25.0017962,4.26778243 25.0017962,3.17712692 L25.0017962,1.9916318 C24.9541986,0.90097629 25.8585542,0 27.0008981,0 Z M27.0008981,10.7168759 L27.0008981,10.7168759 C28.0956444,10.7168759 29,11.6178522 29,12.7085077 L29,32.0083682 C29,33.0990237 28.0956444,34 27.0008981,34 L27.0008981,34 C25.9061518,34 25.0017962,33.0990237 25.0017962,32.0083682 L25.0017962,12.7085077 C24.9541986,11.6178522 25.8585542,10.7168759 27.0008981,10.7168759 Z" id="Shape"></path>
                <path d="M49.5056508,33.4380165 L42.1573935,26.0853994 C41.0122105,24.9146006 39.0081404,25.7575758 39.0081404,27.3498623 L39.0081404,32.2203857 C39.0081404,33.2038567 38.1969691,34 37.194934,34 L36.8132064,34 C35.8111713,34 35,33.2038567 35,32.2203857 L35,1.77961433 C35,0.796143251 35.8111713,0 36.8132064,0 L37.194934,0 C38.1969691,0 39.0081404,0.796143251 39.0081404,1.77961433 L39.0081404,17.2341598 C39.0081404,18.8264463 41.0122105,19.6694215 42.1573935,18.4986226 L49.1716391,11.4738292 C49.5056508,11.1460055 49.9828104,10.9118457 50.4599699,10.9118457 L50.4599699,10.9118457 C52.0823125,10.9118457 52.8934837,12.8319559 51.7483008,13.9559229 L44.877203,20.8870523 C44.1614637,21.5895317 44.1614637,22.7134986 44.877203,23.415978 L52.4640401,30.9090909 C53.6092231,32.0330579 52.7980518,33.953168 51.1757093,33.953168 L50.8416976,33.953168 C50.3168221,34 49.8873785,33.8126722 49.5056508,33.4380165 Z" id="Path"></path>
                <path d="M78,17.7122449 L78,27.2877551 C78,28.5081633 77.5227273,29.6346939 76.6636364,30.4795918 L74.4204545,32.6857143 C73.5613636,33.5306122 72.3681818,34 71.175,34 L63.825,34 C62.5840909,34 61.4386364,33.5306122 60.5795455,32.6857143 L58.3363636,30.4795918 C57.4772727,29.6346939 57,28.4612245 57,27.2877551 L57,17.7122449 C57,16.4918367 57.4772727,15.3653061 58.3363636,14.5204082 L60.5795455,12.3142857 C61.4386364,11.4693878 62.6318182,11 63.825,11 L71.175,11 C72.4159091,11 73.5613636,11.4693878 74.4204545,12.3142857 L76.6636364,14.5204082 C77.5227273,15.3653061 78,16.4918367 78,17.7122449 Z M73.9909091,25.9734694 L73.9909091,19.0265306 C73.9909091,17.8061224 73.5136364,16.6795918 72.6545455,15.8346939 L72.6545455,15.8346939 C71.7477273,14.9897959 70.6022727,14.5204082 69.3613636,14.5204082 L65.5909091,14.5204082 C64.35,14.5204082 63.2045455,14.9897959 62.3454545,15.8346939 L62.3454545,15.8346939 C61.4863636,16.6795918 61.0090909,17.8530612 61.0090909,19.0265306 L61.0090909,25.9734694 C61.0090909,27.1938776 61.4863636,28.3204082 62.3454545,29.1653061 L62.3454545,29.1653061 C63.2045455,30.0102041 64.3977273,30.4795918 65.5909091,30.4795918 L69.3613636,30.4795918 C70.6022727,30.4795918 71.7477273,30.0102041 72.6068182,29.1653061 L72.6068182,29.1653061 C73.5136364,28.3204082 73.9909091,27.1469388 73.9909091,25.9734694 Z" id="Shape"></path>
                <path d="M103,15.6558704 L103,32.6032389 C103,33.3481781 102.391101,33.9534413 101.641686,33.9534413 L100.377049,33.9534413 C99.6276347,33.9534413 99.0187354,33.3481781 99.0187354,32.6032389 L99.0187354,17.145749 C99.0187354,16.7732794 98.8782201,16.4473684 98.5971897,16.1680162 L97.3793911,14.9574899 C97.1451991,14.7246964 96.7704918,14.5384615 96.3957845,14.5384615 L91.9929742,14.5384615 C91.618267,14.5384615 91.2903981,14.6781377 91.0093677,14.9574899 L87.4028103,18.5425101 C87.1686183,18.7753036 86.9812646,19.1477733 86.9812646,19.5202429 L86.9812646,32.6497976 C86.9812646,33.3947368 86.3723653,34 85.6229508,34 L84.3583138,34 C83.6088993,34 83,33.3947368 83,32.6497976 L83,12.3967611 C83,11.6518219 83.6088993,11.0465587 84.3583138,11.0465587 L85.295082,11.0465587 C86.0444965,11.0465587 86.6065574,11.6052632 86.6533958,12.3502024 L86.6533958,12.3502024 C86.7002342,13.51417 88.1522248,14.0728745 88.9953162,13.2348178 L90.8220141,11.4190283 C91.0562061,11.1862348 91.4309133,11 91.8056206,11 L98.3161593,11 C98.6908665,11 99.0187354,11.1396761 99.2997658,11.4190283 L102.578454,14.6781377 C102.859485,14.9574899 103,15.2834008 103,15.6558704 Z" id="Path"></path>
                <path d="M110,0 L110,0 C111.095238,0 112,0.90097629 112,1.9916318 L112,3.17712692 C112,4.26778243 111.095238,5.16875872 110,5.16875872 L110,5.16875872 C108.904762,5.16875872 108,4.26778243 108,3.17712692 L108,1.9916318 C108,0.90097629 108.904762,0 110,0 Z M110,10.7168759 L110,10.7168759 C111.095238,10.7168759 112,11.6178522 112,12.7085077 L112,32.0083682 C112,33.0990237 111.095238,34 110,34 L110,34 C108.904762,34 108,33.0990237 108,32.0083682 L108,12.7085077 C108,11.6178522 108.904762,10.7168759 110,10.7168759 Z" id="Shape"></path>
                <path d="M135.477703,31.148374 L133.156384,33.4857724 C132.831399,33.8130081 132.367135,34 131.856445,34 L122.571167,34 C122.106903,34 121.642639,33.8130081 121.271228,33.4857724 L117.51069,29.699187 C117.185706,29.3719512 117,28.9044715 117,28.3902439 L117,16.6097561 C117,16.1422764 117.185706,15.6747967 117.51069,15.300813 L121.271228,11.5142276 C121.596213,11.1869919 122.060476,11 122.571167,11 L131.624313,11 C132.088577,11 132.552841,11.1869919 132.924252,11.5142276 L135.245571,13.851626 C135.941967,14.5528455 135.941967,15.7215447 135.245571,16.4227642 L135.245571,16.4227642 C134.549175,17.1239837 133.388516,17.1239837 132.69212,16.4227642 L131.345754,15.0670732 C131.02077,14.7398374 130.556506,14.5528455 130.045816,14.5528455 L124.33537,14.5528455 C123.871106,14.5528455 123.406842,14.7398374 123.035431,15.0670732 L121.50336,16.6097561 C121.178375,16.9369919 120.99267,17.4044715 120.99267,17.9186992 L120.99267,27.0345528 C120.99267,27.5020325 121.178375,27.9695122 121.50336,28.3434959 L123.035431,29.8861789 C123.360415,30.2134146 123.824679,30.4004065 124.33537,30.4004065 L130.277947,30.4004065 C130.742211,30.4004065 131.206475,30.2134146 131.577886,29.8861789 L132.924252,28.5304878 C133.620648,27.8292683 134.781307,27.8292683 135.477703,28.5304878 L135.477703,28.5304878 C136.174099,29.2784553 136.174099,30.4471545 135.477703,31.148374 Z" id="Path"></path>
                <path d="M160,15.6558704 L160,32.6032389 C160,33.3481781 159.382353,33.9534413 158.622172,33.9534413 L157.671946,33.9534413 C156.911765,33.9534413 156.341629,33.3947368 156.294118,32.6497976 L156.294118,32.6497976 C156.246606,31.48583 154.773756,30.9271255 153.918552,31.7651822 L152.065611,33.5809717 C151.828054,33.8137652 151.447964,34 151.067873,34 L143.608597,34 C143.228507,34 142.895928,33.8603239 142.61086,33.5809717 L139.427602,30.4615385 C139.190045,30.2287449 139,29.8562753 139,29.4838057 L139,25.2469636 C139,24.8744939 139.142534,24.548583 139.427602,24.2692308 L142.135747,21.6153846 C142.373303,21.3825911 142.705882,21.242915 143.038462,21.242915 L154.58371,20.451417 C155.29638,20.4048583 155.866516,19.7995951 155.866516,19.1012146 L155.866516,17.0991903 C155.866516,16.7267206 155.723982,16.4008097 155.438914,16.1214575 L154.156109,14.8643725 C153.918552,14.6315789 153.538462,14.4453441 153.158371,14.4453441 L145.936652,14.4453441 C145.556561,14.4453441 145.223982,14.5850202 144.938914,14.8643725 L143.180995,16.5870445 C142.658371,17.0991903 141.755656,17.0991903 141.233032,16.5870445 L140.567873,15.9352227 C140.045249,15.4230769 140.045249,14.5384615 140.567873,14.0263158 L143.228507,11.4190283 C143.466063,11.1862348 143.846154,11 144.226244,11 L155.201357,11 C155.581448,11 155.914027,11.1396761 156.199095,11.4190283 L159.524887,14.6781377 C159.857466,14.9574899 160,15.2834008 160,15.6558704 Z M155.961538,25.4797571 L155.961538,25.2935223 C155.961538,24.5020243 155.29638,23.8967611 154.488688,23.9433198 L145.033937,24.5951417 C144.701357,24.5951417 144.368778,24.7348178 144.178733,24.9676113 L143.561086,25.5728745 C143.323529,25.805668 143.133484,26.1781377 143.133484,26.5506073 L143.133484,28.1336032 C143.133484,28.5060729 143.276018,28.8319838 143.561086,29.111336 L144.511312,30.0425101 C144.748869,30.2753036 145.128959,30.4615385 145.50905,30.4615385 L150.925339,30.4615385 C151.30543,30.4615385 151.638009,30.3218623 151.923077,30.0425101 L155.628959,26.4109312 C155.819005,26.2246964 155.961538,25.8522267 155.961538,25.4797571 Z" id="Shape"></path>
            </g>
        </g>
    </g>
</svg>