<?xml version="1.0" encoding="UTF-8"?>
<svg width="160px" height="60px" viewBox="0 0 160 60" version="1.1" xmlns="http://www.w3.org/2000/svg" xmlns:xlink="http://www.w3.org/1999/xlink">
    <title>eikon_simple</title>
    <defs>
        <polygon id="path-1" points="0 0 31.6651376 0 31.6651376 36.1307339 0 36.1307339"></polygon>
        <polygon id="path-3" points="0 59 159.678899 59 159.678899 0 0 0"></polygon>
        <polygon id="path-5" points="0 59 159.678899 59 159.678899 0 0 0"></polygon>
        <polygon id="path-7" points="0 59 159.678899 59 159.678899 0 0 0"></polygon>
        <polygon id="path-9" points="0 59 159.678899 59 159.678899 0 0 0"></polygon>
        <polygon id="path-11" points="0 59 159.678899 59 159.678899 0 0 0"></polygon>
        <polygon id="path-13" points="0 59 159.678899 59 159.678899 0 0 0"></polygon>
    </defs>
    <g id="Page-1" stroke="none" stroke-width="1" fill="none" fill-rule="evenodd">
        <g id="Wireframe-1440-12col" transform="translate(-546.000000, -4820.000000)">
            <g id="eikon_simple" transform="translate(546.000000, 4820.111111)">
                <g id="Fill-1-Clipped" transform="translate(0.000000, 15.311675)">
                    <mask id="mask-2" fill="white">
                        <use xlink:href="#path-1"></use>
                    </mask>
                    <g id="path-1_00000042001445507911045480000000188827111244874632_"></g>
                    <path d="M24.2224771,14.4793578 C24.2224771,9.74311927 20.9747706,6.63073394 16.2385321,6.63073394 C11.6376147,6.63073394 8.11926606,9.33715596 8.11926606,14.4793578 L24.2224771,14.4793578 Z M16.3738532,0 C25.0344037,0 31.8004587,6.76605505 31.8004587,15.4266055 C31.8004587,16.6444954 31.8004587,18.1330275 31.3944954,20.4334862 L7.84862385,20.4334862 C7.84862385,25.3050459 10.2844037,29.3646789 16.5091743,29.3646789 C20.9747706,29.3646789 22.5986239,27.3348624 23.5458716,24.8990826 L31.3944954,24.8990826 C30.3119266,30.853211 25.0344037,36.1307339 16.5091743,36.1307339 C5.41284404,36.1307339 0,27.3348624 0,17.9977064 C0,7.71330275 5.95412844,0 16.3738532,0 L16.3738532,0 Z" id="Fill-1" fill="#FFFFFF" mask="url(#mask-2)"></path>
                </g>
                <g id="Fill-4-Clipped">
                    <mask id="mask-4" fill="white">
                        <use xlink:href="#path-3"></use>
                    </mask>
                    <g id="path-3_00000150085872863131780960000007474121170675010490_"></g>
                    <path d="M39.6490826,50.3394495 L47.9036697,50.3394495 L47.9036697,16.9151376 L39.6490826,16.9151376 L39.6490826,50.3394495 L39.6490826,50.3394495 Z M43.7087156,0 C46.8211009,0 49.2568807,2.30045872 49.2568807,5.27752294 C49.2568807,8.11926606 46.8211009,10.4197248 43.7087156,10.4197248 C40.7316514,10.4197248 38.2958716,8.11926606 38.2958716,5.27752294 C38.2958716,2.30045872 40.7316514,0 43.7087156,0 L43.7087156,0 Z" id="Fill-4" fill="#FFFFFF" mask="url(#mask-4)"></path>
                </g>
                <g id="Fill-6-Clipped">
                    <mask id="mask-6" fill="white">
                        <use xlink:href="#path-5"></use>
                    </mask>
                    <g id="path-3_00000013881412803445256650000004712554305429514122_"></g>
                    <polygon id="Fill-6" fill="#FFFFFF" mask="url(#mask-6)" points="55.7522936 50.3394495 55.7522936 0 63.7362385 0 63.7362385 31.6651376 76.456422 16.7798165 86.3348624 16.7798165 72.1261468 33.559633 86.3348624 50.3394495 76.456422 50.3394495 63.7362385 35.5894495 63.7362385 50.3394495"></polygon>
                </g>
                <g id="Fill-7-Clipped">
                    <mask id="mask-8" fill="white">
                        <use xlink:href="#path-7"></use>
                    </mask>
                    <g id="path-3_00000062878665275670434170000011894802918630732977_"></g>
                    <path d="M102.708716,44.25 C108.933486,44.25 113.12844,39.2431193 113.12844,33.2889908 C113.12844,27.3348624 108.933486,22.3279817 102.708716,22.3279817 C96.483945,22.3279817 92.4243119,27.3348624 92.4243119,33.2889908 C92.4243119,39.2431193 96.483945,44.25 102.708716,44.25 M102.708716,15.2912844 C113.940367,15.2912844 121.383028,23.5458716 121.383028,33.2889908 C121.383028,43.0321101 113.940367,51.4220183 102.708716,51.4220183 C91.4770642,51.4220183 84.1697248,43.1674312 84.1697248,33.4243119 C84.1697248,23.6811927 91.6123853,15.2912844 102.708716,15.2912844" id="Fill-7" fill="#FFFFFF" mask="url(#mask-8)"></path>
                </g>
                <g id="Fill-8-Clipped">
                    <mask id="mask-10" fill="white">
                        <use xlink:href="#path-9"></use>
                    </mask>
                    <g id="path-3_00000146462141249995907690000000775152237751439009_"></g>
                    <path d="M125.713303,50.3394495 L125.713303,16.2385321 L133.697248,16.2385321 L133.697248,20.9747706 C135.862385,17.1857798 139.786697,15.2912844 144.928899,15.2912844 C149.93578,15.2912844 153.183486,17.0504587 155.213303,19.8922018 C156.972477,22.4633028 157.37844,25.3050459 157.37844,30.0412844 L157.37844,50.3394495 L149.394495,50.3394495 L149.394495,32.7477064 C149.394495,26.9288991 147.635321,22.4633028 141.951835,22.4633028 C136.40367,22.4633028 133.697248,26.9288991 133.697248,32.7477064 L133.697248,50.3394495 L125.713303,50.3394495 Z" id="Fill-8" fill="#FFFFFF" mask="url(#mask-10)"></path>
                </g>
                <g id="Fill-9-Clipped">
                    <mask id="mask-12" fill="white">
                        <use xlink:href="#path-11"></use>
                    </mask>
                    <g id="path-3_00000179617424586344932120000007865450818516403332_"></g>
                    <polygon id="Fill-9" fill="#FFFFFF" mask="url(#mask-12)" points="70.5022936 55.7522936 1.08256881 55.7522936 1.08256881 59 72.1261468 59"></polygon>
                </g>
                <g id="Fill-10-Clipped">
                    <mask id="mask-14" fill="white">
                        <use xlink:href="#path-13"></use>
                    </mask>
                    <g id="path-3_00000039814805741734663330000000799068742066793146_"></g>
                    <polygon id="Fill-10" fill="#FFFFFF" mask="url(#mask-14)" points="73.3440367 55.7522936 74.9678899 59 159.678899 59 159.678899 55.7522936"></polygon>
                </g>
            </g>
        </g>
    </g>
</svg>