<?xml version="1.0" encoding="UTF-8"?>
<svg width="254px" height="54px" viewBox="0 0 254 54" version="1.1" xmlns="http://www.w3.org/2000/svg" xmlns:xlink="http://www.w3.org/1999/xlink">
    <title>eikonica</title>
    <g id="Page-1" stroke="none" stroke-width="1" fill="none" fill-rule="evenodd">
        <g id="Wireframe-1440-12col" transform="translate(-165.000000, -4660.000000)" fill="#FFFFFF" fill-rule="nonzero">
            <g id="eikonica" transform="translate(165.000000, 4660.000000)">
                <path d="M33,26.0427699 L33,34.8594705 C33,36.5173116 31.6561086,37.7983707 30.0882353,37.7983707 L9.25791855,37.7983707 C7.61538462,37.7983707 6.34615385,39.1547862 6.34615385,40.7372709 L6.34615385,42.8472505 C6.34615385,43.6008147 6.64479638,44.3543788 7.16742081,44.9572301 L9.70588235,47.5193483 C10.2285068,48.0468432 10.9751131,48.3482688 11.7963801,48.3482688 L22.39819,48.3482688 C23.1447964,48.3482688 23.8914027,48.0468432 24.4886878,47.5193483 L26.7285068,45.2586558 C27.8484163,44.1283096 29.7149321,44.1283096 30.8348416,45.2586558 L30.8348416,45.2586558 C31.9547511,46.389002 31.9547511,48.2729124 30.8348416,49.4032587 L27.10181,53.1710794 C26.5791855,53.6985743 25.8325792,54 25.0113122,54 L8.95927602,54 C8.21266968,54 7.46606335,53.6985743 6.86877828,53.1710794 L0.821266968,47.0672098 C0.298642534,46.5397149 0,45.7861507 0,45.0325866 L0,26.0427699 C0,25.2892057 0.298642534,24.5356415 0.821266968,23.9327902 L6.86877828,17.8289206 C7.39140271,17.3014257 8.13800905,17 8.95927602,17 L23.9660633,17 C24.7126697,17 25.459276,17.3014257 26.0565611,17.8289206 L32.1040724,23.9327902 C32.6266968,24.5356415 33,25.2892057 33,26.0427699 Z M26.6538462,29.2830957 L26.6538462,28.1527495 C26.6538462,27.3991853 26.3552036,26.6456212 25.8325792,26.0427699 L23.219457,23.4806517 C22.6968326,22.9531568 21.9502262,22.6517312 21.1289593,22.6517312 L11.7963801,22.6517312 C11.0497738,22.6517312 10.3031674,22.9531568 9.70588235,23.4806517 L7.16742081,26.0427699 C6.64479638,26.5702648 6.34615385,27.3238289 6.34615385,28.1527495 L6.34615385,29.2830957 C6.34615385,30.9409369 7.69004525,32.2219959 9.25791855,32.2219959 L23.7420814,32.2219959 C25.3099548,32.2973523 26.6538462,30.9409369 26.6538462,29.2830957 Z" id="Shape"></path>
                <path d="M43.0013472,0 L43.0013472,0 C44.6434666,0 46,1.43096234 46,3.16317992 L46,5.0460251 C46,6.77824268 44.6434666,8.20920502 43.0013472,8.20920502 L43.0013472,8.20920502 C41.3592278,8.20920502 40.0026943,6.77824268 40.0026943,5.0460251 L40.0026943,3.16317992 C39.9312978,1.43096234 41.2878313,0 43.0013472,0 Z M43.0013472,17.0209205 L43.0013472,17.0209205 C44.6434666,17.0209205 46,18.4518828 46,20.1841004 L46,50.8368201 C46,52.5690377 44.6434666,54 43.0013472,54 L43.0013472,54 C41.3592278,54 40.0026943,52.5690377 40.0026943,50.8368201 L40.0026943,20.1841004 C39.9312978,18.4518828 41.2878313,17.0209205 43.0013472,17.0209205 Z" id="Shape"></path>
                <path d="M78.3702152,53.107438 L66.5313562,41.4297521 C64.6863392,39.5702479 61.4575595,40.9090909 61.4575595,43.4380165 L61.4575595,51.1735537 C61.4575595,52.7355372 60.1506724,54 58.5362826,54 L57.9212769,54 C56.306887,54 55,52.7355372 55,51.1735537 L55,2.82644628 C55,1.26446281 56.306887,0 57.9212769,0 L58.5362826,0 C60.1506724,0 61.4575595,1.26446281 61.4575595,2.82644628 L61.4575595,27.3719008 C61.4575595,29.9008264 64.6863392,31.2396694 66.5313562,29.3801653 L77.8320852,18.2231405 C78.3702152,17.7024793 79.1389723,17.3305785 79.9077294,17.3305785 L79.9077294,17.3305785 C82.5215034,17.3305785 83.8283905,20.3801653 81.9833735,22.1652893 L70.9132715,33.1735537 C69.7601359,34.2892562 69.7601359,36.0743802 70.9132715,37.1900826 L83.1365091,49.0909091 C84.9815261,50.8760331 83.674639,53.9256198 81.060865,53.9256198 L80.522735,53.9256198 C79.6771022,54 78.9852209,53.7024793 78.3702152,53.107438 Z" id="Path"></path>
                <path d="M124,27.7979592 L124,43.2020408 C124,45.1653061 123.25,46.977551 121.9,48.3367347 L118.375,51.8857143 C117.025,53.244898 115.15,54 113.275,54 L101.725,54 C99.775,54 97.975,53.244898 96.625,51.8857143 L93.1,48.3367347 C91.75,46.977551 91,45.0897959 91,43.2020408 L91,27.7979592 C91,25.8346939 91.75,24.022449 93.1,22.6632653 L96.625,19.1142857 C97.975,17.755102 99.85,17 101.725,17 L113.275,17 C115.225,17 117.025,17.755102 118.375,19.1142857 L121.9,22.6632653 C123.25,24.022449 124,25.8346939 124,27.7979592 Z M117.7,41.0877551 L117.7,29.9122449 C117.7,27.9489796 116.95,26.1367347 115.6,24.777551 L115.6,24.777551 C114.175,23.4183673 112.375,22.6632653 110.425,22.6632653 L104.5,22.6632653 C102.55,22.6632653 100.75,23.4183673 99.4,24.777551 L99.4,24.777551 C98.05,26.1367347 97.3,28.0244898 97.3,29.9122449 L97.3,41.0877551 C97.3,43.0510204 98.05,44.8632653 99.4,46.222449 L99.4,46.222449 C100.75,47.5816327 102.625,48.3367347 104.5,48.3367347 L110.425,48.3367347 C112.375,48.3367347 114.175,47.5816327 115.525,46.222449 L115.525,46.222449 C116.95,44.8632653 117.7,42.9755102 117.7,41.0877551 Z" id="Shape"></path>
                <path d="M164,24.4898785 L164,51.7530364 C164,52.951417 163.025761,53.9251012 161.826698,53.9251012 L159.803279,53.9251012 C158.604215,53.9251012 157.629977,52.951417 157.629977,51.7530364 L157.629977,26.8866397 C157.629977,26.2874494 157.405152,25.7631579 156.955504,25.3137652 L155.007026,23.3663968 C154.632319,22.9919028 154.032787,22.6923077 153.433255,22.6923077 L146.388759,22.6923077 C145.789227,22.6923077 145.264637,22.917004 144.814988,23.3663968 L139.044496,29.1336032 C138.669789,29.5080972 138.370023,30.1072874 138.370023,30.7064777 L138.370023,51.8279352 C138.370023,53.0263158 137.395785,54 136.196721,54 L134.173302,54 C132.974239,54 132,53.0263158 132,51.8279352 L132,19.2469636 C132,18.048583 132.974239,17.0748988 134.173302,17.0748988 L135.672131,17.0748988 C136.871194,17.0748988 137.770492,17.9736842 137.845433,19.1720648 L137.845433,19.1720648 C137.920375,21.0445344 140.24356,21.9433198 141.592506,20.5951417 L144.515222,17.6740891 C144.88993,17.2995951 145.489461,17 146.088993,17 L156.505855,17 C157.105386,17 157.629977,17.2246964 158.079625,17.6740891 L163.325527,22.917004 C163.775176,23.3663968 164,23.8906883 164,24.4898785 Z" id="Path"></path>
                <path d="M175,0 L175,0 C176.642857,0 178,1.43096234 178,3.16317992 L178,5.0460251 C178,6.77824268 176.642857,8.20920502 175,8.20920502 L175,8.20920502 C173.357143,8.20920502 172,6.77824268 172,5.0460251 L172,3.16317992 C172,1.43096234 173.357143,0 175,0 Z M175,17.0209205 L175,17.0209205 C176.642857,17.0209205 178,18.4518828 178,20.1841004 L178,50.8368201 C178,52.5690377 176.642857,54 175,54 L175,54 C173.357143,54 172,52.5690377 172,50.8368201 L172,20.1841004 C172,18.4518828 173.357143,17.0209205 175,17.0209205 Z" id="Shape"></path>
                <path d="M215.175321,49.4126016 L211.510079,53.1727642 C210.996946,53.699187 210.263897,54 209.457544,54 L194.796579,54 C194.063531,54 193.330483,53.699187 192.744044,53.1727642 L186.806353,47.0813008 C186.293219,46.554878 186,45.8028455 186,44.9756098 L186,26.0243902 C186,25.2723577 186.293219,24.5203252 186.806353,23.9186992 L192.744044,17.8272358 C193.257178,17.300813 193.990226,17 194.796579,17 L209.09102,17 C209.824068,17 210.557117,17.300813 211.143555,17.8272358 L214.808797,21.5873984 C215.908369,22.7154472 215.908369,24.5955285 214.808797,25.7235772 L214.808797,25.7235772 C213.709224,26.851626 211.876604,26.851626 210.777031,25.7235772 L208.651191,23.5426829 C208.138057,23.0162602 207.405009,22.7154472 206.598656,22.7154472 L197.582162,22.7154472 C196.849114,22.7154472 196.116066,23.0162602 195.529627,23.5426829 L193.110568,26.0243902 C192.597434,26.550813 192.304215,27.3028455 192.304215,28.1300813 L192.304215,42.7947154 C192.304215,43.546748 192.597434,44.2987805 193.110568,44.9004065 L195.529627,47.3821138 C196.042761,47.9085366 196.775809,48.2093496 197.582162,48.2093496 L206.96518,48.2093496 C207.698228,48.2093496 208.431277,47.9085366 209.017715,47.3821138 L211.143555,45.2012195 C212.243128,44.0731707 214.075748,44.0731707 215.175321,45.2012195 L215.175321,45.2012195 C216.274893,46.4044715 216.274893,48.2845528 215.175321,49.4126016 Z" id="Path"></path>
                <path d="M254,24.4898785 L254,51.7530364 C254,52.951417 253.029412,53.9251012 251.834842,53.9251012 L250.341629,53.9251012 C249.147059,53.9251012 248.251131,53.0263158 248.176471,51.8279352 L248.176471,51.8279352 C248.10181,49.9554656 245.78733,49.0566802 244.443439,50.4048583 L241.531674,53.3259109 C241.158371,53.7004049 240.561086,54 239.963801,54 L228.242081,54 C227.644796,54 227.122172,53.7753036 226.674208,53.3259109 L221.671946,48.3076923 C221.298643,47.9331984 221,47.3340081 221,46.7348178 L221,39.9190283 C221,39.3198381 221.223982,38.7955466 221.671946,38.3461538 L225.927602,34.0769231 C226.300905,33.7024291 226.823529,33.4777328 227.346154,33.4777328 L245.488688,32.2044534 C246.608597,32.1295547 247.504525,31.1558704 247.504525,30.0323887 L247.504525,26.8117409 C247.504525,26.2125506 247.280543,25.6882591 246.832579,25.2388664 L244.816742,23.2165992 C244.443439,22.8421053 243.846154,22.5425101 243.248869,22.5425101 L231.900452,22.5425101 C231.303167,22.5425101 230.780543,22.7672065 230.332579,23.2165992 L227.570136,25.9878543 C226.748869,26.8117409 225.330317,26.8117409 224.50905,25.9878543 L223.463801,24.9392713 C222.642534,24.1153846 222.642534,22.6923077 223.463801,21.8684211 L227.644796,17.6740891 C228.0181,17.2995951 228.615385,17 229.21267,17 L246.459276,17 C247.056561,17 247.579186,17.2246964 248.027149,17.6740891 L253.253394,22.917004 C253.776018,23.3663968 254,23.8906883 254,24.4898785 Z M247.653846,40.2935223 L247.653846,39.9939271 C247.653846,38.7206478 246.608597,37.7469636 245.339367,37.8218623 L230.4819,38.8704453 C229.959276,38.8704453 229.436652,39.0951417 229.138009,39.4696356 L228.167421,40.4433198 C227.794118,40.8178151 227.495475,41.417004 227.495475,42.0161943 L227.495475,44.562753 C227.495475,45.1619433 227.719457,45.6862348 228.167421,46.1356275 L229.660633,47.6336032 C230.033937,48.0080972 230.631222,48.3076923 231.228507,48.3076923 L239.739819,48.3076923 C240.337104,48.3076923 240.859729,48.082996 241.307692,47.6336032 L247.131222,41.791498 C247.429864,41.4919028 247.653846,40.8927126 247.653846,40.2935223 Z" id="Shape"></path>
            </g>
        </g>
    </g>
</svg>