<?xml version="1.0" encoding="UTF-8"?>
<svg width="61px" height="60px" viewBox="0 0 61 60" version="1.1" xmlns="http://www.w3.org/2000/svg" xmlns:xlink="http://www.w3.org/1999/xlink">
    <title>etat_de_fribourg</title>
    <g id="Page-1" stroke="none" stroke-width="1" fill="none" fill-rule="evenodd">
        <g id="Wireframe-1440-12col" transform="translate(-991.000000, -4821.000000)" fill="#FFFFFF" fill-rule="nonzero">
            <g id="etat_de_fribourg" transform="translate(991.940078, 4821.333333)">
                <path d="M0.32370921,28.1666977 L0.32370921,29.3806073 C3.88451052,28.4904069 7.68809375,26.3053698 9.79220361,24.3631145 C11.1679678,23.0682776 12.3818773,21.5306589 13.3530049,19.7502582 C13.3530049,19.7502582 13.4339322,19.6693309 13.4339322,19.5884036 C14.3241326,17.9698576 14.971551,16.0276023 15.4571148,13.7616379 C16.7519516,7.53023555 14.8096964,1.29883325 14.4050599,0.489560226 C13.919496,-0.0769308926 13.2720776,0.00399641 12.7865138,0.00399641 C12.7055865,0.00399641 12.5437319,0.00399641 12.4628046,0.00399641 L0.32370921,0.00399641 L0.32370921,14.2472017 L9.63034901,14.2472017 C9.71127631,14.2472017 9.87313092,14.2472017 9.87313092,14.2472017 C10.1968401,14.328129 10.439622,14.4899836 10.439622,14.8136928 C10.439622,14.8946201 10.439622,14.9755474 10.439622,15.0564747 C10.439622,17.8889303 9.06385789,23.4729142 1.05205493,27.0337155 L0.32370921,27.3574247 L0.32370921,28.1666977 Z" id="Path"></path>
                <g id="Group" transform="translate(0.000000, 36.097573)">
                    <polygon id="Path" points="0.32370921 0.0809273026 3.47987401 0.0809273026 3.47987401 0.566491118 0.971127631 0.566491118 0.971127631 2.02318256 3.31801941 2.02318256 3.31801941 2.50874638 0.971127631 2.50874638 0.971127631 4.04636513 3.47987401 4.04636513 3.47987401 4.53192895 0.32370921 4.53192895"></polygon>
                    <polygon id="Path" points="5.34120197 0.566491118 3.88451052 0.566491118 3.88451052 0.0809273026 7.52623914 0.0809273026 7.52623914 0.566491118 5.98862039 0.566491118 5.98862039 4.61285625 5.34120197 4.61285625"></polygon>
                    <path d="M8.74014868,0.0809273026 L9.3875671,0.0809273026 L11.1679678,4.61285625 L10.5205493,4.61285625 L10.0349855,3.2370921 L8.09273026,3.2370921 L7.60716644,4.61285625 L6.95974802,4.61285625 L8.74014868,0.0809273026 Z M8.25458486,2.75152829 L9.79220361,2.75152829 L9.06385789,0.647418421 L9.06385789,0.647418421 L8.25458486,2.75152829 Z" id="Shape"></path>
                    <polygon id="Path" points="12.2200227 0.566491118 10.6824039 0.566491118 10.6824039 0.0809273026 14.3241326 0.0809273026 14.3241326 0.566491118 12.7865138 0.566491118 12.7865138 4.61285625 12.2200227 4.61285625"></polygon>
                    <path d="M16.8328789,0.0809273026 L18.3704977,0.0809273026 C19.7462618,0.0809273026 20.5555349,0.809273026 20.5555349,2.26596447 C20.5555349,3.80358322 19.9081164,4.61285625 18.3704977,4.61285625 L16.8328789,4.61285625 L16.8328789,0.0809273026 Z M17.3993701,4.12729243 L18.3704977,4.12729243 C18.7751342,4.12729243 19.9081164,4.04636513 19.9081164,2.34689178 C19.9081164,1.29483684 19.5034799,0.647418421 18.3704977,0.647418421 L17.3184428,0.647418421 L17.3184428,4.12729243 L17.3993701,4.12729243 Z" id="Shape"></path>
                    <polygon id="Path" points="21.3648079 0.0809273026 24.5209727 0.0809273026 24.5209727 0.566491118 22.0122263 0.566491118 22.0122263 2.02318256 24.3591181 2.02318256 24.3591181 2.50874638 22.0122263 2.50874638 22.0122263 4.04636513 24.5209727 4.04636513 24.5209727 4.53192895 21.3648079 4.53192895 21.3648079 0.0809273026"></polygon>
                    <polygon id="Path" points="27.272501 0.0809273026 30.2668112 0.0809273026 30.2668112 0.566491118 27.9199194 0.566491118 27.9199194 2.02318256 30.0240293 2.02318256 30.0240293 2.50874638 27.9199194 2.50874638 27.9199194 4.61285625 27.3534283 4.61285625 27.3534283 0.0809273026"></polygon>
                    <path d="M30.9951569,0.0809273026 L33.0992668,0.0809273026 C33.9085398,0.0809273026 34.4750309,0.566491118 34.4750309,1.29483684 C34.4750309,1.86132796 34.232249,2.26596447 33.6657579,2.42781908 L33.6657579,2.42781908 C34.232249,2.50874638 34.3131763,2.91338289 34.3131763,3.39894671 C34.3131763,3.80358322 34.3131763,4.37007434 34.5559582,4.61285625 L33.9085398,4.61285625 C33.7466852,4.45100164 33.8276125,3.96543783 33.7466852,3.47987401 C33.6657579,3.0752375 33.5848306,2.67060099 33.0183395,2.67060099 L31.6425753,2.67060099 L31.6425753,4.61285625 L31.0760842,4.61285625 L31.0760842,0.0809273026 L30.9951569,0.0809273026 Z M32.8564849,2.18503717 C33.422976,2.18503717 33.9085398,2.02318256 33.9085398,1.37576414 C33.9085398,0.971127631 33.6657579,0.566491118 33.0992668,0.566491118 L31.6425753,0.566491118 L31.6425753,2.10410987 L32.8564849,2.10410987 L32.8564849,2.18503717 Z" id="Shape"></path>
                    <polygon id="Path" points="35.5270858 0.0809273026 36.093577 0.0809273026 36.093577 4.61285625 35.5270858 4.61285625"></polygon>
                    <path d="M37.2265592,0.0809273026 L38.8451052,0.0809273026 C39.2497418,0.0809273026 39.7353056,0.0809273026 40.0590148,0.242781908 C40.382724,0.404636513 40.6255059,0.728345723 40.6255059,1.21390954 C40.6255059,1.69947335 40.382724,2.02318256 39.9780875,2.26596447 L39.9780875,2.26596447 C40.5445786,2.34689178 40.8682878,2.83245559 40.8682878,3.31801941 C40.8682878,3.96543783 40.382724,4.61285625 39.4925237,4.61285625 L37.3074865,4.61285625 L37.3074865,0.0809273026 L37.2265592,0.0809273026 Z M37.8739776,2.02318256 L39.0878872,2.02318256 C39.7353056,2.02318256 40.0590148,1.78040066 40.0590148,1.29483684 C40.0590148,0.647418421 39.6543783,0.566491118 39.0878872,0.566491118 L37.8739776,0.566491118 L37.8739776,2.02318256 Z M37.8739776,4.12729243 L39.4115964,4.12729243 C39.8971602,4.12729243 40.2208694,3.80358322 40.2208694,3.31801941 C40.2208694,2.75152829 39.7353056,2.58967368 39.2497418,2.58967368 L37.8739776,2.58967368 L37.8739776,4.12729243 L37.8739776,4.12729243 Z" id="Shape"></path>
                    <path d="M43.6198161,-5.7502307e-15 C45.0765075,-5.7502307e-15 45.8048533,1.13298224 45.8048533,2.34689178 C45.8048533,3.56080131 45.0765075,4.69378355 43.6198161,4.69378355 C42.1631247,4.69378355 41.4347789,3.56080131 41.4347789,2.34689178 C41.4347789,1.13298224 42.1631247,-5.7502307e-15 43.6198161,-5.7502307e-15 Z M43.6198161,4.20821973 C44.7527983,4.20821973 45.1574348,3.2370921 45.1574348,2.34689178 C45.1574348,1.45669145 44.671871,0.485563816 43.6198161,0.485563816 C42.4868339,0.485563816 42.0821973,1.45669145 42.0821973,2.34689178 C42.0821973,3.2370921 42.4868339,4.20821973 43.6198161,4.20821973 Z" id="Shape"></path>
                    <path d="M50.2558549,2.9943102 C50.2558549,4.12729243 49.6084365,4.77471085 48.4754543,4.77471085 C47.342472,4.77471085 46.6141263,4.20821973 46.6141263,2.9943102 L46.6141263,0.0809273026 L47.1806174,0.0809273026 L47.1806174,2.9943102 C47.1806174,3.80358322 47.6661812,4.20821973 48.394527,4.20821973 C49.1228727,4.20821973 49.6084365,3.80358322 49.6084365,2.9943102 L49.6084365,0.0809273026 L50.2558549,0.0809273026 L50.2558549,2.9943102 Z" id="Path"></path>
                    <path d="M51.3079098,0.0809273026 L53.492947,0.0809273026 C54.30222,0.0809273026 54.8687112,0.566491118 54.8687112,1.29483684 C54.8687112,1.86132796 54.6259292,2.26596447 54.0594381,2.42781908 L54.0594381,2.42781908 C54.6259292,2.50874638 54.7068566,2.91338289 54.7068566,3.39894671 C54.7068566,3.80358322 54.7068566,4.37007434 54.9496385,4.61285625 L54.30222,4.61285625 C54.1403654,4.45100164 54.2212927,3.96543783 54.1403654,3.47987401 C54.0594381,3.0752375 53.9785108,2.67060099 53.4120197,2.67060099 L51.9553283,2.67060099 L51.9553283,4.61285625 L51.3888371,4.61285625 L51.3888371,0.0809273026 L51.3079098,0.0809273026 Z M53.1692378,2.18503717 C53.7357289,2.18503717 54.2212927,2.02318256 54.2212927,1.37576414 C54.2212927,0.971127631 53.9785108,0.566491118 53.4120197,0.566491118 L51.9553283,0.566491118 L51.9553283,2.10410987 L53.1692378,2.10410987 L53.1692378,2.18503717 Z" id="Shape"></path>
                    <path d="M59.1578582,4.04636513 C58.834149,4.53192895 58.2676579,4.69378355 57.7011667,4.69378355 C56.3254026,4.69378355 55.5161296,3.56080131 55.5161296,2.42781908 C55.5161296,1.13298224 56.2444753,-5.7502307e-15 57.7011667,-5.7502307e-15 C58.6722944,-5.7502307e-15 59.4815674,0.404636513 59.643422,1.53761875 L59.0769309,1.53761875 C58.9960036,0.890200329 58.4295125,0.566491118 57.7011667,0.566491118 C56.5681845,0.566491118 56.163548,1.53761875 56.163548,2.50874638 C56.163548,3.47987401 56.7300391,4.28914704 57.7011667,4.28914704 C58.6722944,4.28914704 59.1578582,3.64172862 59.1578582,2.83245559 L57.7011667,2.83245559 L57.7011667,2.34689178 L59.643422,2.34689178 L59.643422,4.69378355 L59.2387855,4.69378355 L59.1578582,4.04636513 Z" id="Path"></path>
                    <path d="M2.91338289,10.439622 C2.83245559,9.79220361 2.42781908,9.54942171 1.78040066,9.54942171 C1.29483684,9.54942171 0.728345723,9.71127631 0.728345723,10.3586947 C0.728345723,10.9251858 1.45669145,11.0061132 2.18503717,11.1679678 C2.91338289,11.3298224 3.64172862,11.5726043 3.64172862,12.4628046 C3.64172862,13.4339322 2.67060099,13.8385687 1.86132796,13.8385687 C0.809273026,13.8385687 1.43755767e-15,13.3530049 1.43755767e-15,12.2200227 L0.566491118,12.2200227 C0.566491118,12.9483684 1.21390954,13.2720776 1.86132796,13.2720776 C2.42781908,13.2720776 2.9943102,13.110223 2.9943102,12.4628046 C2.9943102,11.8153862 2.26596447,11.7344589 1.53761875,11.5726043 C0.809273026,11.4107497 0.0809273026,11.1679678 0.0809273026,10.3586947 C0.0809273026,9.4684944 0.890200329,9.06385789 1.69947335,9.06385789 C2.58967368,9.06385789 3.31801941,9.4684944 3.39894671,10.5205493 L2.91338289,10.5205493 L2.91338289,10.439622 Z" id="Path"></path>
                    <polygon id="Path" points="5.34120197 9.63034901 3.80358322 9.63034901 3.80358322 9.14478519 7.44531184 9.14478519 7.44531184 9.63034901 5.90769309 9.63034901 5.90769309 13.6767141 5.34120197 13.6767141"></polygon>
                    <path d="M8.74014868,9.14478519 L9.3875671,9.14478519 L11.1679678,13.6767141 L10.5205493,13.6767141 L10.0349855,12.30095 L8.09273026,12.30095 L7.60716644,13.6767141 L6.95974802,13.6767141 L8.74014868,9.14478519 Z M8.25458486,11.8153862 L9.79220361,11.8153862 L9.06385789,9.71127631 L9.06385789,9.71127631 L8.25458486,11.8153862 Z" id="Shape"></path>
                    <path d="M12.9483684,9.14478519 L13.5957868,9.14478519 L15.3761875,13.6767141 L14.7287691,13.6767141 L14.2432053,12.30095 L12.30095,12.30095 L11.8153862,13.6767141 L11.1679678,13.6767141 L12.9483684,9.14478519 Z M12.4628046,11.8153862 L14.0004233,11.8153862 L13.2720776,9.71127631 L13.2720776,9.71127631 L12.4628046,11.8153862 Z" id="Shape"></path>
                    <polygon id="Path" points="16.4282424 9.63034901 14.8906237 9.63034901 14.8906237 9.14478519 18.5323523 9.14478519 18.5323523 9.63034901 16.9947335 9.63034901 16.9947335 13.6767141 16.4282424 13.6767141 16.4282424 9.63034901"></polygon>
                    <polygon id="Path" points="21.0410987 9.14478519 24.0354089 9.14478519 24.0354089 9.63034901 21.6885171 9.63034901 21.6885171 11.0870405 23.792627 11.0870405 23.792627 11.5726043 21.6885171 11.5726043 21.6885171 13.6767141 21.122026 13.6767141 21.122026 9.14478519"></polygon>
                    <path d="M24.7637546,9.14478519 L26.8678645,9.14478519 C27.6771375,9.14478519 28.2436286,9.63034901 28.2436286,10.3586947 C28.2436286,10.9251858 28.0008467,11.3298224 27.4343556,11.491677 L27.4343556,11.491677 C27.9199194,11.5726043 28.081774,11.9772408 28.081774,12.4628046 C28.081774,12.8674411 28.081774,13.4339322 28.3245559,13.6767141 L27.6771375,13.6767141 C27.5152829,13.5148595 27.5962102,13.0292957 27.5152829,12.5437319 C27.4343556,12.1390954 27.3534283,11.7344589 26.7869372,11.7344589 L25.3302457,11.7344589 L25.3302457,13.6767141 L24.7637546,13.6767141 L24.7637546,9.14478519 Z M26.6250826,11.2488951 C27.1915737,11.2488951 27.6771375,11.0870405 27.6771375,10.439622 C27.6771375,10.0349855 27.4343556,9.63034901 26.8678645,9.63034901 L25.411173,9.63034901 L25.411173,11.1679678 L26.6250826,11.1679678 L26.6250826,11.2488951 Z" id="Shape"></path>
                    <polygon id="Path" points="29.2147562 9.14478519 32.370921 9.14478519 32.370921 9.63034901 29.8621747 9.63034901 29.8621747 11.0870405 32.2090664 11.0870405 32.2090664 11.5726043 29.8621747 11.5726043 29.8621747 13.110223 32.370921 13.110223 32.370921 13.5957868 29.2147562 13.5957868"></polygon>
                    <polygon id="Path" points="33.2611214 9.14478519 33.8276125 9.14478519 33.8276125 13.6767141 33.2611214 13.6767141"></polygon>
                    <path d="M34.9605947,9.14478519 L36.5791408,9.14478519 C36.9837773,9.14478519 37.4693411,9.14478519 37.7930503,9.3066398 C38.1167595,9.4684944 38.3595414,9.79220361 38.3595414,10.2777674 C38.3595414,10.7633312 38.1167595,11.0870405 37.712123,11.3298224 L37.712123,11.3298224 C38.2786141,11.4107497 38.6023233,11.8963135 38.6023233,12.3818773 C38.6023233,13.0292957 38.1167595,13.6767141 37.2265592,13.6767141 L35.041522,13.6767141 L35.041522,9.14478519 L34.9605947,9.14478519 Z M35.6080131,11.0870405 L36.8219227,11.0870405 C37.4693411,11.0870405 37.7930503,10.8442585 37.7930503,10.3586947 C37.7930503,9.71127631 37.3884138,9.63034901 36.8219227,9.63034901 L35.6080131,9.63034901 L35.6080131,11.0870405 Z M35.6080131,13.1911503 L37.1456319,13.1911503 C37.6311957,13.1911503 37.9549049,12.8674411 37.9549049,12.3818773 C37.9549049,11.8153862 37.4693411,11.6535316 36.9837773,11.6535316 L35.6080131,11.6535316 L35.6080131,13.1911503 L35.6080131,13.1911503 Z" id="Shape"></path>
                    <path d="M43.053325,12.0581681 C43.053325,13.1911503 42.4059066,13.8385687 41.2729243,13.8385687 C40.1399421,13.8385687 39.4115964,13.2720776 39.4115964,12.0581681 L39.4115964,9.14478519 L39.9780875,9.14478519 L39.9780875,12.0581681 C39.9780875,12.8674411 40.4636513,13.2720776 41.191997,13.2720776 C41.9203427,13.2720776 42.4059066,12.8674411 42.4059066,12.0581681 L42.4059066,9.14478519 L42.9723977,9.14478519 L42.9723977,12.0581681 L43.053325,12.0581681 Z" id="Path"></path>
                    <path d="M44.1053799,9.14478519 L46.2094898,9.14478519 C47.0187628,9.14478519 47.5852539,9.63034901 47.5852539,10.3586947 C47.5852539,10.9251858 47.342472,11.3298224 46.7759809,11.491677 L46.7759809,11.491677 C47.2615447,11.5726043 47.4233993,11.9772408 47.4233993,12.4628046 C47.4233993,12.8674411 47.4233993,13.4339322 47.6661812,13.6767141 L47.0187628,13.6767141 C46.8569082,13.5148595 46.9378355,13.0292957 46.8569082,12.5437319 C46.7759809,12.1390954 46.6950536,11.7344589 46.1285625,11.7344589 L44.671871,11.7344589 L44.671871,13.6767141 L44.1053799,13.6767141 L44.1053799,9.14478519 Z M45.9667079,11.2488951 C46.533199,11.2488951 47.0187628,11.0870405 47.0187628,10.439622 C47.0187628,10.0349855 46.7759809,9.63034901 46.2094898,9.63034901 L44.7527983,9.63034901 L44.7527983,11.1679678 L45.9667079,11.1679678 L45.9667079,11.2488951 Z" id="Shape"></path>
                    <path d="M51.9553283,13.110223 C51.6316191,13.5957868 51.0651279,13.7576414 50.4986368,13.7576414 C49.1228727,13.7576414 48.3135996,12.6246592 48.3135996,11.491677 C48.3135996,10.1968401 49.0419454,9.06385789 50.4986368,9.06385789 C51.4697644,9.06385789 52.2790375,9.4684944 52.4408921,10.6014766 L51.874401,10.6014766 C51.7934737,9.95405822 51.2269825,9.63034901 50.4986368,9.63034901 C49.3656546,9.63034901 48.9610181,10.6014766 48.9610181,11.5726043 C48.9610181,12.5437319 49.5275092,13.3530049 50.4986368,13.3530049 C51.4697644,13.3530049 51.9553283,12.7055865 51.9553283,11.8963135 L50.4986368,11.8963135 L50.4986368,11.4107497 L52.4408921,11.4107497 L52.4408921,13.7576414 L52.0362556,13.7576414 L51.9553283,13.110223 Z" id="Path"></path>
                    <polygon id="Path" points="3.1561648 22.740572 2.75152829 22.740572 2.02318256 20.1508983 2.02318256 20.1508983 1.29483684 22.740572 0.890200329 22.740572 0.0809273026 19.6653345 0.485563816 19.6653345 1.13298224 22.1740809 1.13298224 22.1740809 1.86132796 19.5844072 2.34689178 19.5844072 2.91338289 22.1740809 2.91338289 22.1740809 3.56080131 19.5844072 3.96543783 19.5844072"></polygon>
                    <polygon id="Path" points="7.28345723 22.740572 6.87882072 22.740572 6.150475 20.1508983 6.150475 20.1508983 5.42212927 22.740572 5.01749276 22.740572 4.20821973 19.6653345 4.61285625 19.6653345 5.26027467 22.1740809 5.26027467 22.1740809 5.98862039 19.5844072 6.47418421 19.5844072 7.04067533 22.1740809 7.04067533 22.1740809 7.68809375 19.5844072 8.09273026 19.5844072"></polygon>
                    <polygon id="Path" points="11.4107497 22.740572 11.0061132 22.740572 10.2777674 20.1508983 10.2777674 20.1508983 9.54942171 22.740572 9.14478519 22.740572 8.33551217 19.6653345 8.74014868 19.6653345 9.3875671 22.2550082 9.3875671 22.2550082 10.1159128 19.6653345 10.6014766 19.6653345 11.2488951 22.2550082 11.2488951 22.2550082 11.8963135 19.6653345 12.2200227 19.6653345"></polygon>
                    <polygon id="Path" points="12.3818773 22.2550082 12.8674411 22.2550082 12.8674411 22.740572 12.3818773 22.740572"></polygon>
                    <polygon id="Path" points="13.6767141 19.5844072 15.6998967 19.5844072 15.6998967 19.9081164 14.0813507 19.9081164 14.0813507 20.8792441 15.5380421 20.8792441 15.5380421 21.2029533 14.0813507 21.2029533 14.0813507 22.6596447 13.6767141 22.6596447"></polygon>
                    <path d="M16.2663878,19.5844072 L17.7230793,19.5844072 C18.2895704,19.5844072 18.6942069,19.9081164 18.6942069,20.3936803 C18.6942069,20.7983168 18.5323523,21.0410987 18.1277158,21.2029533 L18.1277158,21.2029533 C18.451425,21.2838806 18.5323523,21.5266625 18.6132796,21.8503717 C18.6132796,22.1740809 18.6132796,22.4977901 18.7751342,22.740572 L18.2895704,22.740572 C18.2086431,22.5787174 18.2086431,22.2550082 18.2086431,22.0122263 C18.1277158,21.6885171 18.1277158,21.4457352 17.7230793,21.4457352 L16.7519516,21.4457352 L16.7519516,22.740572 L16.2663878,22.740572 L16.2663878,19.5844072 Z M17.5612247,21.0410987 C17.9658612,21.0410987 18.2895704,20.9601714 18.2895704,20.4746076 C18.2895704,20.1508983 18.1277158,19.9081164 17.7230793,19.9081164 L16.6710243,19.9081164 L16.6710243,20.9601714 L17.5612247,20.9601714 L17.5612247,21.0410987 Z" id="Shape"></path>
                    <polygon id="Path" points="19.3416253 22.2550082 19.8271891 22.2550082 19.8271891 22.740572 19.3416253 22.740572"></polygon>
                    <path d="M22.8214993,20.5555349 C22.740572,20.1508983 22.4168628,19.9081164 21.931299,19.9081164 C21.2029533,19.9081164 20.8792441,20.5555349 20.8792441,21.2029533 C20.8792441,21.931299 21.2029533,22.4977901 21.931299,22.4977901 C22.4977901,22.4977901 22.8214993,22.0931536 22.8214993,21.6075898 L23.2261358,21.6075898 C23.1452085,22.4168628 22.6596447,22.8214993 21.8503717,22.8214993 C20.8792441,22.8214993 20.3936803,22.0931536 20.3936803,21.2029533 C20.3936803,20.312753 20.8792441,19.5844072 21.8503717,19.5844072 C22.4977901,19.5844072 23.0642812,19.9081164 23.1452085,20.5555349 L22.8214993,20.5555349 Z" id="Path"></path>
                    <polygon id="Path" points="23.8735543 19.5844072 24.2781908 19.5844072 24.2781908 20.8792441 25.8967368 20.8792441 25.8967368 19.5844072 26.3013733 19.5844072 26.3013733 22.6596447 25.8967368 22.6596447 25.8967368 21.2029533 24.2781908 21.2029533 24.2781908 22.6596447 23.8735543 22.6596447"></polygon>
                </g>
            </g>
        </g>
    </g>
</svg>