<?xml version="1.0" encoding="UTF-8"?>
<svg width="65px" height="65px" viewBox="0 0 65 65" version="1.1" xmlns="http://www.w3.org/2000/svg" xmlns:xlink="http://www.w3.org/1999/xlink">
    <title>facebook</title>
    <g id="Page-1" stroke="none" stroke-width="1" fill="none" fill-rule="evenodd">
        <g id="Wireframe-1440-12col" transform="translate(-1020.000000, -4702.000000)" fill="#FFFFFF" fill-rule="nonzero">
            <g id="facebook" transform="translate(1020.000000, 4702.000000)">
                <path d="M65,32.6977688 C65,14.6348884 50.453629,0 32.5,0 C14.546371,0 0,14.6348884 0,32.6977688 C0,49.0176469 11.8847785,62.5450311 27.421875,65 L27.421875,42.1497975 L19.1658266,42.1497975 L19.1658266,32.6977688 L27.421875,32.6977688 L27.421875,25.493712 C27.421875,17.2994918 32.2706653,12.7732258 39.6971752,12.7732258 C43.2538303,12.7732258 46.9729802,13.4113592 46.9729802,13.4113592 L46.9729802,21.4539555 L42.8737868,21.4539555 C38.8374981,21.4539555 37.578121,23.9748474 37.578121,26.5603444 L37.578121,32.6977688 L46.5916289,32.6977688 L45.1500966,42.1497975 L37.578121,42.1497975 L37.578121,65 C53.1152215,62.5450311 65,49.0176469 65,32.6977688 Z" id="Path"></path>
            </g>
        </g>
    </g>
</svg>