<?xml version="1.0" encoding="UTF-8"?>
<svg width="161px" height="57px" viewBox="0 0 161 57" version="1.1" xmlns="http://www.w3.org/2000/svg" xmlns:xlink="http://www.w3.org/1999/xlink">
    <title>fri-son</title>
    <g id="Page-1" stroke="none" stroke-width="1" fill="none" fill-rule="evenodd">
        <g id="Wireframe-1440-12col" transform="translate(-768.000000, -4822.000000)" fill="#FFFFFF" fill-rule="nonzero">
            <g id="fri-son" transform="translate(768.682289, 4822.888889)">
                <g id="Group">
                    <path d="M108.8632,21.8336 C101.4216,21.8336 95.1496,26.6176 92.8128,33.2504 C91.5784,29.7768 89.2736,26.8032 86.2784,24.7696 C83.8176,23.0936 82.188,20.2968 82.188,17.12 C82.188,12.0792 86.3384,7.9664 91.416,7.9664 L91.416,0.0752 C82.008,0.0752 74.3096,7.6672 74.3096,17.1208 C74.3096,23.004 77.2856,28.2024 81.8024,31.2848 L81.8024,31.2968 C84.2776,32.9552 85.9056,35.7712 85.9056,38.9568 C85.9056,43.9896 81.7552,48.108 76.68,48.108 C71.6304,48.108 67.528,43.9896 67.528,38.9568 L59.6344,38.9568 C59.6336,48.332 67.2992,56 76.6784,56 C84.1112,56 90.46,51.2496 92.8112,44.6016 C95.156,51.2232 101.4752,56 108.8632,56 C118.2824,56 125.9824,48.4064 125.9824,38.9544 C125.9832,29.504 118.3112,21.8336 108.8632,21.8336 M108.8632,48.1072 C103.828,48.1072 99.7128,43.988 99.7128,38.9552 C99.7128,33.8768 103.8296,29.7288 108.8632,29.7288 C113.9408,29.7288 118.0888,33.8792 118.0888,38.9552 C118.0888,43.9872 113.9408,48.1072 108.8632,48.1072" id="Shape"></path>
                    <path d="M152.256,55.2368 L160.2544,55.2368 L160.2544,38.9544 C160.2544,29.504 152.4824,21.832 143.1056,21.832 C133.6512,21.832 125.9824,29.504 125.9824,38.9544 L125.9824,55.2544 L133.8792,55.2544 L133.8792,38.9544 C133.8792,33.9216 138.028,29.728 143.1056,29.728 C148.1376,29.728 152.256,33.9216 152.256,38.9544 L152.256,55.2368 L152.256,55.2368 Z" id="Path"></path>
                    <path d="M46.1656,21.1088 L46.1656,21.1088 C40.9184,21.1088 36.208,23.5216 33.0736,27.284 C29.9416,23.5208 25.216,21.1088 19.968,21.1088 L17.8472,21.1088 L17.8472,17.0456 C17.8472,12.0128 21.996,7.896 27.0744,7.896 L27.0744,0 C17.6664,0 9.9528,7.5968 9.9528,17.0456 L9.9528,21.1088 L0,21.1088 L0,29.0024 L9.9528,29.0024 L9.9528,55.2992 L17.8472,55.2992 L17.8472,29.0024 L19.968,29.0024 C25.0152,29.0024 29.1184,33.108 29.1184,38.1544 L29.1184,55.2624 L37.0152,55.2624 L37.0152,38.1544 C37.0152,33.1072 41.1328,29.0024 46.1656,29.0024 L48.2896,29.0024 L48.2896,55.2624 L56.1816,55.2624 L56.1816,21.1088 L46.1656,21.1088 Z" id="Path"></path>
                    <polygon id="Path" points="72.1608 21.1088 59.5976 29.0024 59.5976 37.0944 72.1608 29.3984"></polygon>
                </g>
                <rect id="Rectangle" x="48.2872" y="0.0784" width="7.892" height="18.9056"></rect>
            </g>
        </g>
    </g>
</svg>