<?xml version="1.0" encoding="UTF-8"?>
<svg width="65px" height="65px" viewBox="0 0 65 65" version="1.1" xmlns="http://www.w3.org/2000/svg" xmlns:xlink="http://www.w3.org/1999/xlink">
    <title>instagram</title>
    <g id="Page-1" stroke="none" stroke-width="1" fill="none" fill-rule="evenodd">
        <g id="Wireframe-1440-12col" transform="translate(-925.000000, -4702.000000)" fill="#FFFFFF" fill-rule="nonzero">
            <g id="instagram" transform="translate(925.000000, 4702.000000)">
                <path d="M32.5072531,15.8348222 C23.2847204,15.8348222 15.8457911,23.2754115 15.8457911,32.5 C15.8457911,41.7245907 23.2847204,49.1651778 32.5072531,49.1651778 C41.7297857,49.1651778 49.1687129,41.7245907 49.1687129,32.5 C49.1687129,23.2754093 41.7297857,15.8348222 32.5072531,15.8348222 Z M32.5072531,43.3345436 C26.5474086,43.3345436 21.675129,38.4756794 21.675129,32.5000022 C21.675129,26.524325 26.532909,21.6654609 32.5072531,21.6654609 C38.4815949,21.6654609 43.339375,26.524325 43.339375,32.5000022 C43.339375,38.4756794 38.4670932,43.3345436 32.5072509,43.3345436 L32.5072531,43.3345436 Z M53.7364762,15.153129 C53.7364762,13.0065281 51.9963759,11.2660395 49.8502539,11.2660395 C47.704132,11.2660395 45.9640316,13.0065281 45.9640316,15.153129 C45.9640316,17.2997343 47.6896302,19.040223 49.8502539,19.040223 C51.9963759,19.040223 53.7364762,17.3142393 53.7364762,15.153129 Z M64.7716134,19.0982384 C64.5250974,13.8912774 63.3360315,9.27897984 59.5223089,5.47891563 C55.7230881,1.678847 51.111824,0.48951575 45.9060247,0.228439798 C40.5407154,-0.0761465993 24.459289,-0.0761465993 19.0939797,0.228439798 C13.9026799,0.475010792 9.2914136,1.66434204 5.47769327,5.46441068 C1.66397293,9.26447931 0.489404324,13.8767724 0.228388832,19.0837334 C-0.0761296108,24.45024 -0.0761296108,40.535255 0.228388832,45.9017616 C0.474902603,51.1087226 1.66397072,55.7210202 5.47769106,59.5210844 C9.29141139,63.3211486 13.888176,64.5104843 19.0939775,64.7715602 C24.4592868,65.0761466 40.5407132,65.0761466 45.9060225,64.7715602 C51.1118218,64.5249892 55.7230903,63.335658 59.5223067,59.5210844 C63.3215276,55.7210157 64.5105935,51.1087226 64.7716112,45.9017616 C65.0761296,40.535255 65.0761296,24.4647428 64.7716112,19.0982384 L64.7716134,19.0982384 Z M57.8402089,51.65988 C56.7091454,54.502679 54.5195183,56.6927948 51.6628518,57.8386156 C47.3851052,59.5355938 37.2345199,59.143982 32.5072464,59.143982 C27.779973,59.143982 17.6148882,59.5210888 13.3516411,57.8386156 C10.5094763,56.7072997 8.31984918,54.517184 7.17428401,51.65988 C5.47768663,47.3811788 5.86920876,37.2283284 5.86920876,32.5 C5.86920876,27.7716716 5.49218614,17.6043207 7.17428401,13.34012 C8.30534967,10.497321 10.4949768,8.30720525 13.3516411,7.16138444 C17.6293877,5.46441068 27.779973,5.85601796 32.5072464,5.85601796 C37.2345199,5.85601796 47.3996069,5.47891121 51.6628518,7.16138444 C54.5050166,8.29270472 56.6946437,10.482816 57.8402089,13.34012 C59.5368085,17.6188212 59.1452841,27.7716716 59.1452841,32.5 C59.1452841,37.2283284 59.5368085,47.3956793 57.8402089,51.65988 Z" id="Shape"></path>
            </g>
        </g>
    </g>
</svg>