<?xml version="1.0" encoding="UTF-8"?>
<svg width="65px" height="65px" viewBox="0 0 65 65" version="1.1" xmlns="http://www.w3.org/2000/svg" xmlns:xlink="http://www.w3.org/1999/xlink">
    <title>linkedin</title>
    <g id="Page-1" stroke="none" stroke-width="1" fill="none" fill-rule="evenodd">
        <g id="Wireframe-1440-12col" transform="translate(-830.000000, -4702.000000)" fill="#FFFFFF" fill-rule="nonzero">
            <g id="linkedin" transform="translate(830.000000, 4702.000000)">
                <path d="M60.357143,0 L4.62834938,0 C2.07477716,0 0,2.10379464 0,4.68638216 L0,60.3136178 C0,62.8962054 2.07477716,65 4.62834938,65 L60.357143,65 C62.9107152,65 65,62.8962054 65,60.3136178 L65,4.68638216 C65,2.10379464 62.9107152,0 60.357143,0 Z M19.6450899,55.7142857 L10.0111626,55.7142857 L10.0111626,24.694196 L19.6595998,24.694196 L19.6595998,55.7142857 L19.6450899,55.7142857 Z M14.8281263,20.4575893 C11.7377241,20.4575893 9.24218896,17.9475464 9.24218896,14.8716518 C9.24218896,11.7957572 11.7377264,9.28571429 14.8281285,9.28571429 C17.9040208,9.28571429 20.4140658,11.7957572 20.4140658,14.8716518 C20.4140658,17.9620518 17.9185306,20.4575893 14.8281285,20.4575893 L14.8281263,20.4575893 Z M55.757811,55.7142857 L46.1238837,55.7142857 L46.1238837,40.625 C46.1238837,37.0267875 46.051339,32.3984379 41.1183035,32.3984379 C36.0982135,32.3984379 35.3292421,36.3158464 35.3292421,40.3638411 L35.3292421,55.7142857 L25.6953147,55.7142857 L25.6953147,24.694196 L34.9375015,24.694196 L34.9375015,28.9308027 L35.0680809,28.9308027 C36.3593746,26.4933022 39.5078116,23.9252223 44.194198,23.9252223 C53.944195,23.9252223 55.757811,30.3526781 55.757811,38.7098197 L55.757811,55.7142857 Z" id="Shape"></path>
            </g>
        </g>
    </g>
</svg>