<?xml version="1.0" encoding="UTF-8"?>
<svg width="162px" height="57px" viewBox="0 0 162 57" version="1.1" xmlns="http://www.w3.org/2000/svg" xmlns:xlink="http://www.w3.org/1999/xlink">
    <title>loterie_romande_black</title>
    <g id="Page-1" stroke="none" stroke-width="1" fill="none" fill-rule="evenodd">
        <g id="Wireframe-1440-12col" transform="translate(-1114.000000, -4824.000000)" fill="#FFFFFF" fill-rule="nonzero">
            <g id="loterie_romande_black" transform="translate(1114.586889, 4824.666667)">
                <path d="M11.7611336,25.4777328 C11.7611336,19.2712551 16.7489879,14.1983806 22.8987854,14.1983806 C29.048583,14.1983806 34.0647773,19.2712551 34.0647773,25.4777328 C34.0647773,31.6842105 29.048583,36.7288631 22.8987854,36.7288631 C16.7773279,36.757085 11.7611336,31.6842105 11.7611336,25.4777328 Z M160.659919,0 L160.659919,56 L0,56 L0,0 L160.659919,0 Z M5.29959514,21.8785425 C5.29959514,31.6275304 13.1781377,39.534413 22.9271255,39.534413 C32.6761134,39.534413 40.5546559,31.6275304 40.5546559,21.8785425 C40.5546559,12.1012146 32.6761134,4.19433198 22.9271255,4.19433198 C13.1781377,4.19433198 5.29959514,12.1012146 5.29959514,21.8785425 Z M1.21862348,9.06882591 C3.03238866,5.951417 5.52631579,3.28744939 8.44534413,1.21862348 L1.21862348,1.21862348 L1.21862348,9.06882591 Z M159.441296,1.21862348 L37.4089069,1.21862348 C43.8987854,5.78137652 48.1214575,13.3198381 48.1214575,21.8785425 C48.1214575,35.8218623 36.8421053,47.1295547 22.9271255,47.1295547 C13.6882591,47.1295547 5.61133603,42.1417004 1.21862348,34.6882591 L1.21862348,54.7813765 L159.441296,54.7813765 L159.441296,1.21862348 Z M71.4736842,11.3076923 L75.9230769,11.3076923 L75.9230769,20.6315789 L80.2874494,20.6315789 L80.2874494,24.4291498 L71.4736842,24.4291498 L71.4736842,11.3076923 L71.4736842,11.3076923 Z M81.902834,17.7975709 C81.902834,16.7489879 82.1012146,15.7854251 82.4696356,14.9352227 C82.8380567,14.0850202 83.3481781,13.3765182 84,12.7813765 C84.6518219,12.1862348 85.417004,11.7327935 86.3238866,11.4210526 C87.2024291,11.1093117 88.1659919,10.9392713 89.2145749,10.9392713 C90.2631579,10.9392713 91.2267206,11.1093117 92.1052632,11.4210526 C92.9838057,11.7327935 93.7773279,12.2145749 94.4291498,12.7813765 C95.0809717,13.3765182 95.5910931,14.0850202 95.9595142,14.9352227 C96.3279352,15.7854251 96.5263158,16.7489879 96.5263158,17.7975709 C96.5263158,18.8461538 96.3279352,19.8097166 95.9595142,20.6882591 C95.5910931,21.5668016 95.0809717,22.3036437 94.4291498,22.8987854 C93.7773279,23.5222672 93.0121457,23.9757085 92.1052632,24.3157895 C91.2267206,24.6558704 90.2348178,24.8259109 89.2145749,24.8259109 C88.1659919,24.8259109 87.2024291,24.6558704 86.3238866,24.3157895 C85.4453441,23.9757085 84.6518219,23.5222672 84,22.8987854 C83.3481781,22.2753036 82.8380567,21.5384615 82.4696356,20.6882591 C82.1012146,19.8097166 81.902834,18.8461538 81.902834,17.7975709 Z M86.6072874,17.7975709 C86.6072874,18.2226721 86.6639676,18.6194332 86.805668,18.9878543 C86.9473684,19.3562753 87.1174089,19.6680162 87.3441296,19.9230769 C87.5708502,20.1781377 87.854251,20.3765182 88.1659919,20.5182186 C88.4777328,20.659919 88.8461538,20.7449393 89.2145749,20.7449393 C89.582996,20.7449393 89.9230769,20.6882591 90.2348178,20.5182186 C90.5465587,20.3765182 90.8299595,20.1781377 91.0566802,19.9230769 C91.2834008,19.6680162 91.4817814,19.3562753 91.5951417,18.9878543 C91.7368421,18.6194332 91.7935223,18.2226721 91.7935223,17.7975709 C91.7935223,17.3724696 91.7368421,17.0040486 91.5951417,16.6356275 C91.4534413,16.2955466 91.2834008,15.9838057 91.0566802,15.757085 C90.8299595,15.5303644 90.5465587,15.3319838 90.2348178,15.1902834 C89.9230769,15.048583 89.582996,14.9919028 89.2145749,14.9919028 C88.8461538,14.9919028 88.5060729,15.048583 88.1659919,15.1902834 C87.854251,15.3319838 87.5708502,15.5303644 87.3441296,15.757085 C87.1174089,15.9838057 86.9473684,16.2955466 86.805668,16.6356275 C86.6923077,17.0040486 86.6072874,17.3724696 86.6072874,17.7975709 Z M105.623482,24.4574899 L101.202429,24.4574899 L101.202429,15.0202429 L97.9716599,15.0202429 L97.9716599,11.3076923 L108.854251,11.3076923 L108.854251,15.0202429 L105.623482,15.0202429 L105.623482,24.4574899 Z M111.291498,11.3076923 L120.331984,11.3076923 L120.331984,14.9919028 L115.45749,14.9919028 L115.45749,16.1255061 L120.048583,16.1255061 L120.048583,19.5546559 L115.45749,19.5546559 L115.45749,20.7732794 L120.672065,20.7732794 L120.672065,24.4574899 L111.319838,24.4574899 L111.319838,11.3076923 L111.291498,11.3076923 Z M123.591093,11.3076923 L129.259109,11.3076923 C129.910931,11.3076923 130.534413,11.3643725 131.186235,11.5060729 C131.838057,11.6477733 132.404858,11.8744939 132.88664,12.1862348 C133.396761,12.5263158 133.793522,12.951417 134.105263,13.5182186 C134.417004,14.0566802 134.558704,14.7651822 134.558704,15.5870445 C134.558704,16.3805668 134.360324,17.0890688 133.963563,17.7125506 C133.566802,18.3360324 133,18.7894737 132.263158,19.1295547 L135.607287,24.4574899 L130.534413,24.4574899 L128.012146,19.7530364 L127.870445,19.7530364 L127.870445,24.4574899 L123.591093,24.4574899 L123.591093,11.3076923 L123.591093,11.3076923 Z M127.842105,16.8623482 L128.720648,16.8623482 C128.862348,16.8623482 129.032389,16.8623482 129.202429,16.8340081 C129.37247,16.805668 129.54251,16.7489879 129.712551,16.6639676 C129.854251,16.5789474 129.995951,16.465587 130.109312,16.3238866 C130.222672,16.1821862 130.279352,15.9838057 130.279352,15.757085 C130.279352,15.5303644 130.222672,15.3319838 130.137652,15.1902834 C130.052632,15.048583 129.939271,14.9635628 129.797571,14.8785425 C129.65587,14.8218623 129.51417,14.7651822 129.37247,14.7368421 C129.202429,14.708502 129.060729,14.708502 128.919028,14.708502 L127.870445,14.708502 L127.870445,16.8623482 L127.842105,16.8623482 Z M137.251012,11.3076923 L141.700405,11.3076923 L141.700405,24.4574899 L137.251012,24.4574899 L137.251012,11.3076923 Z M144.506073,11.3076923 L153.546559,11.3076923 L153.546559,14.9919028 L148.672065,14.9919028 L148.672065,16.1255061 L153.263158,16.1255061 L153.263158,19.5546559 L148.672065,19.5546559 L148.672065,20.7732794 L153.88664,20.7732794 L153.88664,24.4574899 L144.534413,24.4574899 L144.534413,11.3076923 L144.506073,11.3076923 Z M51.805668,30.4939271 L57.4453441,30.4939271 C58.097166,30.4939271 58.7206478,30.5506073 59.3724696,30.6923077 C59.9959514,30.8340081 60.562753,31.0607287 61.0728745,31.3724696 C61.582996,31.7125506 61.9797571,32.1376518 62.291498,32.7044534 C62.6032389,33.242915 62.7449393,33.951417 62.7449393,34.7732794 C62.7449393,35.5668016 62.5465587,36.2753036 62.1497976,36.8987854 C61.7530364,37.5222672 61.1862348,37.9757085 60.4493927,38.3157895 L63.7651822,43.6437247 L58.6923077,43.6437247 L56.1700405,38.9676113 L56.0283401,38.9676113 L56.0283401,43.6437247 L51.7489879,43.6437247 L51.7489879,30.4939271 L51.805668,30.4939271 Z M56.0566802,36.0202429 L56.9068826,36.0202429 C57.048583,36.0202429 57.2186235,36.0202429 57.388664,35.9919028 C57.5587045,35.9635628 57.7287449,35.9068826 57.8704453,35.8218623 C58.0121457,35.7368421 58.1538462,35.6234818 58.2672065,35.4817814 C58.3805668,35.340081 58.4089069,35.1417004 58.4089069,34.9149798 C58.4089069,34.6882591 58.3522267,34.4898785 58.2672065,34.3481781 C58.1821862,34.2064777 58.0688259,34.1214575 57.9271255,34.0364372 C57.7854251,33.9797571 57.6437247,33.9230769 57.4736842,33.8947368 C57.3036437,33.8663968 57.1619433,33.8663968 57.0202429,33.8663968 L55.9716599,33.8663968 L55.9716599,36.0202429 L56.0566802,36.0202429 Z M64.5020243,36.9838057 C64.5020243,35.9352227 64.7004049,35 65.0688259,34.1497976 C65.437247,33.2995951 65.9473684,32.5910931 66.5991903,31.9959514 C67.2510121,31.4008097 68.0161943,30.9473684 68.8947368,30.6356275 C69.7732794,30.3238866 70.7651822,30.1538462 71.7854251,30.1538462 C72.8340081,30.1538462 73.7975709,30.3238866 74.6761134,30.6356275 C75.5546559,30.9473684 76.3481781,31.4008097 77,31.9959514 C77.6518219,32.5910931 78.1619433,33.2995951 78.5303644,34.1497976 C78.8987854,35 79.097166,35.9352227 79.097166,36.9838057 C79.097166,38.0323887 78.8987854,38.9959514 78.5303644,39.8461538 C78.1619433,40.7246964 77.6518219,41.4615385 77,42.0566802 C76.3481781,42.6801619 75.582996,43.1336032 74.6761134,43.4736842 C73.7975709,43.8137652 72.8340081,43.9838057 71.7854251,43.9838057 C70.7368421,43.9838057 69.7732794,43.8137652 68.8947368,43.4736842 C68.0161943,43.1336032 67.2510121,42.6801619 66.5991903,42.0566802 C65.9473684,41.4331984 65.437247,40.6963563 65.0688259,39.8461538 C64.6720648,38.9959514 64.5020243,38.0323887 64.5020243,36.9838057 Z M69.1781377,36.9838057 C69.1781377,37.4089069 69.2348178,37.805668 69.3765182,38.1740891 C69.5182186,38.5425101 69.6882591,38.854251 69.9149798,39.1093117 C70.1417004,39.3643725 70.4251012,39.562753 70.7368421,39.7044534 C71.048583,39.8461538 71.417004,39.9311741 71.7854251,39.9311741 C72.1538462,39.9311741 72.4939271,39.8461538 72.805668,39.7044534 C73.1174089,39.562753 73.4008097,39.3643725 73.6275304,39.1093117 C73.854251,38.854251 74.0526316,38.5425101 74.1659919,38.1740891 C74.2793522,37.805668 74.3643725,37.4089069 74.3643725,36.9838057 C74.3643725,36.5587045 74.3076923,36.1902834 74.1659919,35.8218623 C74.0242915,35.4817814 73.854251,35.1700405 73.6275304,34.9433198 C73.4008097,34.7165992 73.1174089,34.5182186 72.805668,34.3765182 C72.4939271,34.2348178 72.1538462,34.1781377 71.7854251,34.1781377 C71.417004,34.1781377 71.0769231,34.2348178 70.7368421,34.3765182 C70.4251012,34.5182186 70.1417004,34.7165992 69.9149798,34.9433198 C69.6882591,35.1983806 69.5182186,35.4817814 69.3765182,35.8218623 C69.2348178,36.1619433 69.1781377,36.5587045 69.1781377,36.9838057 Z M84.8502024,36.1902834 L85.048583,43.6153846 L80.9392713,43.6153846 L80.9392713,30.4939271 L86.7206478,30.4939271 L89.1012146,37.5506073 L89.1862348,37.5506073 L91.2550607,30.4939271 L97.2064777,30.4939271 L97.2064777,43.6153846 L92.8987854,43.6153846 L93.0404858,36.2469636 L92.9271255,36.2186235 L90.4898785,43.6153846 L87.3724696,43.6153846 L84.9635628,36.1902834 L84.8502024,36.1902834 L84.8502024,36.1902834 Z M103.923077,30.4939271 L108.59919,30.4939271 L113.700405,43.6153846 L108.910931,43.6153846 L108.230769,41.6882591 L104.064777,41.6882591 L103.412955,43.6153846 L98.7368421,43.6153846 L103.923077,30.4939271 Z M106.190283,35.0566802 L105.11336,38.3157895 L107.238866,38.3157895 L106.190283,35.0566802 Z M115.287449,30.4939271 L119.680162,30.4939271 L123.421053,37.1538462 L123.506073,37.1538462 L123.336032,30.4939271 L127.530364,30.4939271 L127.530364,43.6153846 L122.995951,43.6153846 L119.368421,37.3522267 L119.283401,37.3522267 L119.481781,43.6153846 L115.287449,43.6153846 L115.287449,30.4939271 L115.287449,30.4939271 Z M129.939271,43.6153846 L129.939271,30.4939271 L134.842105,30.4939271 C135.890688,30.4939271 136.882591,30.6072874 137.817814,30.805668 C138.753036,31.0040486 139.603239,31.3724696 140.311741,31.854251 C141.048583,32.3643725 141.615385,33.0161943 142.040486,33.8380567 C142.465587,34.659919 142.692308,35.708502 142.692308,36.9554656 C142.692308,38.1174089 142.493927,39.1093117 142.068826,39.9311741 C141.643725,40.7813765 141.105263,41.4615385 140.396761,42 C139.716599,42.5384615 138.894737,42.9352227 138.016194,43.1902834 C137.109312,43.4453441 136.174089,43.5870445 135.210526,43.5870445 L129.939271,43.5870445 L129.939271,43.6153846 Z M134.190283,34.2348178 L134.190283,39.8178138 L135.012146,39.8178138 C136.060729,39.8178138 136.854251,39.5910931 137.392713,39.1376518 C137.959514,38.6842105 138.214575,37.9473684 138.214575,36.9271255 C138.214575,36.0769231 137.931174,35.4251012 137.392713,34.9433198 C136.825911,34.4615385 136.089069,34.2348178 135.153846,34.2348178 L134.190283,34.2348178 L134.190283,34.2348178 Z M144.534413,30.4939271 L153.546559,30.4939271 L153.546559,34.1497976 L148.672065,34.1497976 L148.672065,35.2834008 L153.234818,35.2834008 L153.234818,38.7125506 L148.672065,38.7125506 L148.672065,39.9311741 L153.88664,39.9311741 L153.88664,43.5870445 L144.534413,43.5870445 L144.534413,30.4939271 Z" id="Shape"></path>
            </g>
        </g>
    </g>
</svg>